<svg width="128" height="128" version="1.1" xmlns="http://www.w3.org/2000/svg" desc="Created with imagetracer.js version 1.2.6" ><path fill="rgb(199,167,68)" stroke="rgb(199,167,68)" stroke-width="1" opacity="0.9921568627450981" d="M 97.5 15 L 100 16.5 L 104 26.5 L 104 49.5 Q 102.3 53.8 100.5 51 L 99 50.5 L 101 46.5 L 101 30.5 Q 98.8 29.3 100 24.5 L 97 19 Q 94.3 20.1 95 17.5 L 97.5 15 Z " /><path fill="rgb(199,167,68)" stroke="rgb(199,167,68)" stroke-width="1" opacity="0.9921568627450981" d="M 94.5 53 L 99 53.5 Q 98 56 93.5 55 L 94.5 53 Z " /><path fill="rgb(199,167,68)" stroke="rgb(199,167,68)" stroke-width="1" opacity="0.9921568627450981" d="M 81.5 57 L 89.5 57 L 91 58.5 L 84.5 61 L 79 58.5 L 81.5 57 Z " /><path fill="rgb(199,167,68)" stroke="rgb(199,167,68)" stroke-width="1" opacity="0.9921568627450981" d="M 94.5 60 L 99 61 L 99 65.5 Q 95.5 66 96 70.5 L 84.5 83 L 81 84 L 81 81 Q 86.2 83.1 85 78.5 L 89 75.5 L 90.5 72 Q 93.1 72.8 92 69.5 L 94 65.5 L 92 61 L 94.5 60 Z " /><path fill="rgb(199,167,68)" stroke="rgb(199,167,68)" stroke-width="1" opacity="0.9921568627450981" d="M 77.5 85 L 81 85.5 L 77.5 88 Q 74.5 86.5 77.5 85 Z " /><path fill="rgb(199,167,68)" stroke="rgb(199,167,68)" stroke-width="1" opacity="0.9921568627450981" d="M 70.5 89 L 75 89.5 Q 74 92 69.5 91 L 70.5 89 Z " /><path fill="rgb(199,167,68)" stroke="rgb(199,167,68)" stroke-width="1" opacity="0.9921568627450981" d="M 42.5 94 Q 44.8 94.8 44 98.5 L 41 100 Q 39.8 95.4 42.5 94 Z " /><path fill="rgb(255,0,0)" stroke="rgb(255,0,0)" stroke-width="1" opacity="0.00392156862745098" d="M 32.5 3 L 31.5 5 L 32.5 3 Z " /><path fill="rgb(255,0,0)" stroke="rgb(255,0,0)" stroke-width="1" opacity="0.00392156862745098" d="M 95.5 3 L 96.5 5 L 95.5 3 Z " /><path fill="rgb(255,0,0)" stroke="rgb(255,0,0)" stroke-width="1" opacity="0.00392156862745098" d="M 108.5 11 L 107.5 13 L 108.5 11 Z " /><path fill="rgb(255,0,0)" stroke="rgb(255,0,0)" stroke-width="1" opacity="0.00392156862745098" d="M 4.5 31 L 3.5 33 L 4.5 31 Z " /><path fill="rgb(255,0,0)" stroke="rgb(255,0,0)" stroke-width="1" opacity="0.00392156862745098" d="M 123.5 31 L 124.5 33 L 123.5 31 Z " /><path fill="rgb(255,0,0)" stroke="rgb(255,0,0)" stroke-width="1" opacity="0.00392156862745098" d="M 3.5 95 L 4.5 97 L 3.5 95 Z " /><path fill="rgb(255,0,0)" stroke="rgb(255,0,0)" stroke-width="1" opacity="0.00392156862745098" d="M 116.5 107 L 115.5 109 L 116.5 107 Z " /><path fill="rgb(255,0,0)" stroke="rgb(255,0,0)" stroke-width="1" opacity="0.00392156862745098" d="M 20.5 115 L 19.5 117 L 20.5 115 Z " /><path fill="rgb(255,0,0)" stroke="rgb(255,0,0)" stroke-width="1" opacity="0.00392156862745098" d="M 31.5 123 L 32.5 125 L 31.5 123 Z " /><path fill="rgb(239,207,76)" stroke="rgb(239,207,76)" stroke-width="1" opacity="0.8313725490196079" d="M 59 0 L 67.5 0 L 68 1.5 Q 73.4 7.1 86.5 5 L 94 11.5 L 91 13 L 88.5 9 L 77.5 9 L 69.5 5 L 61.5 4 L 50.5 9 L 39.5 9 L 37 11.5 Q 37.8 13.8 35.5 13 Q 32.9 18.2 26 18 Q 27.1 20.7 24.5 20 L 21 22.5 L 15.5 33 Q 13.3 32.3 14 34.5 L 13 37 L 9 39.5 L 9 50.5 L 5 58.5 L 4 66.5 L 9 77.5 L 9 88.5 L 11.5 91 Q 13.8 90.3 13 92.5 Q 18.2 95.1 18 102 Q 20.7 100.9 20 103.5 L 22.5 107 L 26 108 Q 24.8 111 28.5 110 L 28.5 112 L 31.5 111 L 37 115 L 39.5 119 L 51.5 119 L 58.5 123 L 66.5 124 L 76.5 119 L 87.5 119 L 91 116.5 Q 90.3 114.3 92.5 115 L 96.5 111 L 100.5 110 L 107 105.5 L 115 91 L 118 89.5 L 119 87.5 L 119 76.5 L 123 69.5 L 124 61.5 L 119 50.5 L 119 39.5 L 116.5 37 Q 114.3 37.8 115 35.5 L 111 31.5 L 110 27.5 L 105 20.5 L 105 17.5 L 110 21.5 L 113 29.5 L 123 41.5 Q 121.5 53.4 125 59 L 128 59 L 128 68 L 125 69.5 Q 121.3 75.3 123 86.5 L 113 98.5 Q 111.8 106.3 106.5 110 L 98.5 113 L 86.5 123 Q 74.6 121.5 69 125 L 69 128 L 60 128 L 58.5 125 Q 52.7 121.3 41.5 123 L 29.5 113 Q 21.7 111.8 18 106.5 L 15 98.5 L 5 86.5 Q 6.5 74.6 3 69 L 0 69 L 0 60 L 3 58.5 Q 6.7 52.7 5 41.5 L 15 29.5 Q 15.8 21.3 21.5 18 L 29.5 15 L 41.5 5 Q 53.4 6.5 59 3 L 59 0 Z " /><path fill="rgb(239,207,76)" stroke="rgb(239,207,76)" stroke-width="1" opacity="0.996078431372549" d="M 67.5 5 L 73 7.5 L 72.5 10 L 72 7 Q 66.8 7.3 67.5 5 Z " /><path fill="rgb(239,207,76)" stroke="rgb(239,207,76)" stroke-width="1" opacity="0.996078431372549" d="M 56.5 6 L 57 7.5 L 55.5 10 L 55 8.5 L 56.5 6 Z " /><path fill="rgb(239,207,76)" stroke="rgb(239,207,76)" stroke-width="1" opacity="0.996078431372549" d="M 89.5 10 L 92.5 14 L 94 14.5 L 85 17 Q 86.1 19.7 83.5 19 L 73.5 24 L 61 34.5 L 55 43 L 52 44.5 L 51 48 L 48 49.5 L 47 55 L 44 56.5 L 43 63 Q 40.3 61.9 41 64.5 Q 38.5 66 40 71.5 L 36 78.5 L 36 87.5 Q 31.4 93.1 31 102 L 29 102 L 29 108 L 36 110 Q 37.1 112.7 34.5 112 L 35.5 114 L 37 113.5 L 35.5 115 L 31.5 111 L 26 110 Q 27.1 107.3 24.5 108 L 22 106.5 L 26 105 Q 24.1 96.3 28.5 93 Q 31.3 93.6 30 87.5 L 31 84 L 34 83.5 L 34 73.5 L 36.5 68 L 38 67.5 L 38 60.5 L 42 58 Q 40.5 52.6 43.5 51 Q 47.7 52.3 46 47.5 L 51 39 L 55 37.5 L 55 35 Q 58.8 36.5 58 33.5 L 59 31 L 63 30 Q 61.3 25.9 65.5 27 L 68.5 23 L 74 22 Q 72.5 18.2 75.5 19 L 80 18 L 81.5 15 L 86.5 14 L 89 11.5 L 89.5 10 Z " /><path fill="rgb(239,207,76)" stroke="rgb(239,207,76)" stroke-width="1" opacity="0.996078431372549" d="M 35.5 13 L 34.5 15 L 35.5 13 Z " /><path fill="rgb(239,207,76)" stroke="rgb(239,207,76)" stroke-width="1" opacity="0.996078431372549" d="M 32.5 16 L 33.5 18 L 31 17.5 L 32.5 16 Z " /><path fill="rgb(239,207,76)" stroke="rgb(239,207,76)" stroke-width="1" opacity="0.996078431372549" d="M 25.5 20 L 26.5 22 L 25.5 20 Z " /><path fill="rgb(239,207,76)" stroke="rgb(239,207,76)" stroke-width="1" opacity="0.996078431372549" d="M 105.5 21 L 110 27.5 L 110 50.5 L 109 53 L 106 54.5 L 104.5 58 L 103 58.5 L 105 59 L 106 62.5 L 105 65 L 102 66.5 L 101 73 Q 96.5 71.3 98 76.5 L 94 78 L 94 82 L 92.5 82 L 90 86 Q 84.8 83.9 86 88.5 Q 84.8 91 81 90 Q 82.7 94.1 78.5 93 L 74 94 L 72.5 97 L 64 98 L 62.5 101 L 60.5 102 L 46 102 Q 47.5 108.3 43.5 110 Q 37.5 111.5 36 108.5 L 43 105 L 45.5 100 L 67.5 96 Q 68.9 92.4 74.5 93 L 88 84 L 90.5 80 Q 92.8 80.8 92 78.5 L 101 66.5 L 101 60.5 L 97 59 Q 95.8 56 99.5 57 L 105 51.5 L 107 43.5 L 107 36.5 L 105 28.5 L 105.5 21 Z " /><path fill="rgb(239,207,76)" stroke="rgb(239,207,76)" stroke-width="1" opacity="0.996078431372549" d="M 19.5 25 L 21 25.5 L 20 27.5 L 20.5 29 L 18 28 L 19.5 25 Z " /><path fill="rgb(239,207,76)" stroke="rgb(239,207,76)" stroke-width="1" opacity="0.996078431372549" d="M 16.5 32 L 17.5 34 Q 14.7 34.7 16.5 32 Z " /><path fill="rgb(239,207,76)" stroke="rgb(239,207,76)" stroke-width="1" opacity="0.996078431372549" d="M 14.5 34 L 13.5 36 L 14.5 34 Z " /><path fill="rgb(239,207,76)" stroke="rgb(239,207,76)" stroke-width="1" opacity="0.996078431372549" d="M 114.5 35 L 113.5 37 L 114.5 35 Z " /><path fill="rgb(239,207,76)" stroke="rgb(239,207,76)" stroke-width="1" opacity="0.996078431372549" d="M 118.5 42 L 119 48.5 L 118 48.5 L 118.5 42 Z " /><path fill="rgb(239,207,76)" stroke="rgb(239,207,76)" stroke-width="1" opacity="0.996078431372549" d="M 118 54 L 120 54 Q 118.9 56.7 121.5 56 L 121.5 57 L 119.5 58 L 119.5 56 Q 116.9 56.7 118 54 Z " /><path fill="rgb(239,207,76)" stroke="rgb(239,207,76)" stroke-width="1" opacity="0.996078431372549" d="M 7.5 55 L 10 55.5 L 7 56 Q 8.5 59.8 5.5 59 L 6 57.5 L 7.5 55 Z " /><path fill="rgb(239,207,76)" stroke="rgb(239,207,76)" stroke-width="1" opacity="0.996078431372549" d="M 121.5 68 L 123 68.5 L 121 69.5 L 121.5 71 Q 118.5 69.5 121.5 68 Z " /><path fill="rgb(239,207,76)" stroke="rgb(239,207,76)" stroke-width="1" opacity="0.996078431372549" d="M 6.5 71 L 10 72.5 L 8.5 73 L 6.5 71 Z " /><path fill="rgb(239,207,76)" stroke="rgb(239,207,76)" stroke-width="1" opacity="0.996078431372549" d="M 118.5 78 L 119 85.5 L 118 85.5 L 118.5 78 Z " /><path fill="rgb(239,207,76)" stroke="rgb(239,207,76)" stroke-width="1" opacity="0.996078431372549" d="M 116.5 87 L 118 87.5 L 116 88 L 116.5 90 L 118 89.5 L 115 91 L 116.5 87 Z " /><path fill="rgb(239,207,76)" stroke="rgb(239,207,76)" stroke-width="1" opacity="0.996078431372549" d="M 14.5 91 L 17 92.5 L 18 94.5 L 17.5 97 L 16 93.5 Q 16.8 91.3 14.5 92 L 14.5 94 Q 11.5 92.5 14.5 91 Z " /><path fill="rgb(239,207,76)" stroke="rgb(239,207,76)" stroke-width="1" opacity="0.996078431372549" d="M 112.5 91 L 111.5 93 L 112.5 91 Z " /><path fill="rgb(239,207,76)" stroke="rgb(239,207,76)" stroke-width="1" opacity="0.996078431372549" d="M 109.5 100 L 108.5 102 L 109.5 100 Z " /><path fill="rgb(239,207,76)" stroke="rgb(239,207,76)" stroke-width="1" opacity="0.996078431372549" d="M 21.5 101 L 20.5 103 L 21.5 101 Z " /><path fill="rgb(239,207,76)" stroke="rgb(239,207,76)" stroke-width="1" opacity="0.996078431372549" d="M 98.5 109 L 100 109.5 L 97.5 111 L 98.5 109 Z " /><path fill="rgb(239,207,76)" stroke="rgb(239,207,76)" stroke-width="1" opacity="0.996078431372549" d="M 92.5 111 L 91.5 113 L 92.5 111 Z " /><path fill="rgb(239,207,76)" stroke="rgb(239,207,76)" stroke-width="1" opacity="0.996078431372549" d="M 88.5 115 Q 91.8 113.9 91 116.5 L 89 117.5 L 89.5 116 Q 87.3 115.3 88 117.5 L 87 117.5 L 88.5 115 Z " /><path fill="rgb(239,207,76)" stroke="rgb(239,207,76)" stroke-width="1" opacity="0.996078431372549" d="M 42.5 118 L 50 118.5 L 42.5 119 L 42.5 118 Z " /><path fill="rgb(239,207,76)" stroke="rgb(239,207,76)" stroke-width="1" opacity="0.996078431372549" d="M 72 118 Q 75 117 74 120 Q 71.3 118.9 72 121.5 L 71 121.5 L 70 119.5 L 72 119.5 L 72 118 Z " /><path fill="rgb(239,207,76)" stroke="rgb(239,207,76)" stroke-width="1" opacity="0.996078431372549" d="M 78.5 118 L 86 118.5 L 78.5 119 L 78.5 118 Z " /><path fill="rgb(239,207,76)" stroke="rgb(239,207,76)" stroke-width="1" opacity="0.996078431372549" d="M 58.5 120 L 60 122.5 L 59 122.5 L 58.5 121 L 57 121.5 L 58.5 120 Z " /><path fill="rgb(215,192,120)" stroke="rgb(215,192,120)" stroke-width="1" opacity="0.996078431372549" d="M 91.5 18 L 97 19 Q 103 28.3 101 46.5 L 96.5 53 L 87.5 57 Q 81.4 55.9 79 58.5 Q 82.2 61.8 89.5 61 L 93 63.5 L 94 65.5 L 92 70.5 L 83.5 81 Q 80.2 79.9 81 82.5 Q 76.4 88.7 68 90 Q 69.3 93 65.5 92 L 57.5 94 L 52.5 97 L 48.5 97 L 42.5 94 L 41 95.5 L 40 104.5 L 38 108 L 31.5 109 Q 28.8 107.8 30 102.5 L 36 85.5 L 39 82.5 L 39 75.5 L 43 69.5 Q 42.4 64.1 44 62 Q 46.7 63.1 46 60.5 L 47 56.5 L 52.5 48 L 55 46.5 L 56.5 43 L 59 41.5 Q 57.9 38.2 60.5 39 L 63 35 L 67 34 Q 65.3 29.9 69.5 31 L 72.5 27 L 77 26 Q 75.9 23.3 78.5 24 L 84 22 Q 82.9 19.3 85.5 20 L 91.5 18 Z M 94 19 L 82 24 L 70 33 Q 67 32 68 35 L 66 36 L 64 39 L 62 40 L 48 59 Q 48 65 44 68 L 44 72 L 40 86 L 36 92 L 36 96 L 32 103 L 32 107 L 35 108 Q 37 107 36 103 L 39 100 L 40 93 L 45 90 L 44 88 L 45 86 Q 44 82 47 83 L 46 90 L 47 93 L 50 94 L 63 92 L 79 83 Q 88 77 92 66 L 90 63 L 81 63 L 72 59 L 74 57 L 86 56 L 97 51 L 100 44 L 99 29 Q 98 22 94 19 Z " /><path fill="rgb(215,192,120)" stroke="rgb(215,192,120)" stroke-width="1" opacity="0.996078431372549" d="M 49 77 Q 51.7 75.9 51 78.5 L 49 79.5 L 49 77 Z " /><path fill="rgb(243,239,229)" stroke="rgb(243,239,229)" stroke-width="1" opacity="1" d="M 91.5 21 Q 96.3 19.3 95 23.5 Q 99.9 31.1 98 45.5 L 93.5 51 L 88.5 52 L 83.5 55 L 70.5 56 L 69 53.5 L 73.5 48 L 76 46.5 L 77.5 44 L 80 42.5 L 81.5 40 L 88 34.5 L 87 31 L 83.5 32 L 76 38.5 Q 76.8 40.8 74.5 40 L 70.5 45 Q 68.3 44.3 69 46.5 Q 54.8 60.3 45.5 79 L 45 70.5 L 48 66.5 L 49 60.5 Q 52.6 58.6 53 53.5 L 66.5 37 L 91.5 21 Z M 94 23 L 86 27 L 88 27 L 90 31 L 90 36 L 84 42 Q 81 41 82 44 L 80 45 L 76 50 Q 73 49 74 52 L 73 54 L 82 54 L 86 51 L 93 50 L 96 43 L 95 26 L 94 23 Z M 75 33 L 73 35 Q 72 37 75 36 Q 78 35 75 33 Z M 69 37 L 69 40 L 65 41 L 64 45 Q 59 44 61 49 L 59 49 L 56 55 L 58 55 L 73 38 L 69 37 Z M 55 55 L 53 59 L 55 59 L 55 55 Z " /><path fill="rgb(243,239,229)" stroke="rgb(243,239,229)" stroke-width="1" opacity="1" d="M 65.5 60 L 68.5 60 L 76.5 64 Q 86.1 62.9 91 66.5 L 80.5 79 L 69.5 87 Q 63.3 87.3 60.5 91 L 49.5 92 L 48 88.5 L 61 63 L 63 63 Q 61.9 60.3 64.5 61 L 65.5 60 Z M 65 62 L 65 64 L 62 65 L 61 70 L 57 74 L 57 77 L 53 82 L 53 85 L 50 88 L 50 91 L 59 90 L 63 87 L 69 86 Q 69 83 74 83 L 75 81 L 83 75 L 88 67 L 81 65 L 72 65 L 68 62 L 65 62 Z " /><path fill="rgb(216,184,72)" stroke="rgb(216,184,72)" stroke-width="1" opacity="0.9921568627450981" d="M 91.5 15 Q 96.9 13.1 96 16.5 L 94.5 18 L 84 20 Q 85.1 22.7 82.5 22 L 77 24 Q 78.1 26.7 75.5 26 L 71 28.5 L 69.5 31 L 67 31 Q 68.5 34.7 65.5 34 L 63 35 L 60.5 39 Q 57.9 38.2 59 41.5 L 55 44.5 L 53.5 48 L 51 49.5 Q 50.7 54.7 47 56.5 L 46 62 Q 43.3 60.9 44 63.5 Q 41.7 64.8 43 69.5 L 39 75.5 L 39 82.5 L 36.5 85 L 36 78.5 L 40 71.5 Q 39.3 65.4 41 63 Q 43.7 64.1 43 61.5 L 45.5 55 Q 47.8 55.8 47 53.5 L 49.5 48 Q 51.8 48.8 51 46.5 L 53.5 43 Q 55.8 43.8 55 41.5 L 62.5 33 L 79.5 20 L 85 19 Q 83.9 16.3 86.5 17 L 91.5 15 Z " /><path fill="rgb(216,184,72)" stroke="rgb(216,184,72)" stroke-width="1" opacity="0.9921568627450981" d="M 100.5 17 L 105 21.5 L 107 43.5 L 105 51.5 L 99.5 57 Q 95.8 56 97 59 L 101 60.5 L 101 66.5 L 93 76.5 L 92 80 L 88 82.5 Q 88.8 84.8 86.5 84 L 74.5 93 Q 68.9 92.4 67.5 96 L 57.5 97 L 54.5 99 Q 47.2 98.2 44 101.5 L 43 105 L 38.5 107 L 40 104.5 Q 37.9 98.7 42.5 100 L 44.5 95 Q 46.8 97.7 52.5 97 L 60.5 93 L 68 92 L 68.5 90 L 73.5 91 L 74.5 89 L 73 88.5 L 76.5 87 L 78.5 87 L 81 85.5 L 79 84.5 Q 80.3 81.7 81.5 84 L 84.5 83 L 92 75.5 L 99 65.5 L 99 61 L 94.5 60 L 90.5 62 L 87 60.5 L 91 58.5 L 88 56.5 L 92.5 54 L 97.5 55 L 98.5 53 L 97 52.5 L 100.5 51 Q 102.3 53.8 104 49.5 L 104 26.5 L 100.5 17 Z " /><path fill="rgb(216,184,72)" stroke="rgb(216,184,72)" stroke-width="1" opacity="0.9921568627450981" d="M 88.5 75 L 87.5 77 L 88.5 75 Z " /><path fill="rgb(216,184,72)" stroke="rgb(216,184,72)" stroke-width="1" opacity="0.9921568627450981" d="M 29.5 102 L 30 107.5 L 29 107.5 L 29.5 102 Z " /><path fill="rgb(239,207,76)" stroke="rgb(239,207,76)" stroke-width="1" opacity="0.3411764705882353" d="M 54 0 L 59 0 L 59 3 Q 53.4 6.5 41.5 5 L 29.5 15 Q 21 16.5 17 22.5 L 15 29.5 L 5 41.5 Q 7.1 54.6 1.5 60 L 0 59.5 L 0 54 Q 2.7 55.1 2 52.5 L 3 51.5 L 3 38.5 L 4 36 L 8 33.5 Q 7.3 31.3 9.5 32 L 14 25.5 L 15 20.5 L 19.5 16 L 27 14 Q 25.9 11.3 28.5 12 L 32 9.5 Q 31.3 7.3 33.5 8 L 36 4 L 38.5 3 L 51.5 3 L 54 2 L 54 0 Z " /><path fill="rgb(239,207,76)" stroke="rgb(239,207,76)" stroke-width="1" opacity="0.3411764705882353" d="M 68 0 L 73.5 0 L 74 2 L 75.5 2 L 76.5 3 L 88.5 3 L 97.5 11 L 104.5 15 L 107.5 15 L 112 19.5 L 114 26.5 L 125 38.5 Q 123.7 49.4 126 55 Q 129.7 53.8 128 59 Q 124.3 60.5 125 57.5 Q 121 52.5 123 41.5 L 113 29.5 Q 111.5 21 105.5 17 L 97.5 14 L 86.5 5 Q 73.4 7.1 68 1.5 L 68 0 Z " /><path fill="rgb(239,207,76)" stroke="rgb(239,207,76)" stroke-width="1" opacity="0.3411764705882353" d="M 126.5 68 L 128 68 L 128 73 Q 125.3 71.9 126 74.5 L 125 75.5 L 125 88.5 L 117 97.5 L 112 108.5 L 108.5 112 L 101.5 114 L 88.5 125 Q 78.2 123.8 73 126 Q 74.2 129.7 69 128 Q 67.5 124.3 70.5 125 Q 75.5 121 86.5 123 L 98.5 113 L 106.5 110 L 110 106.5 L 113 98.5 L 123 86.5 Q 120.9 73.4 126.5 68 Z " /><path fill="rgb(239,207,76)" stroke="rgb(239,207,76)" stroke-width="1" opacity="0.3411764705882353" d="M 0 69 Q 3.8 67.5 3 70.5 Q 7 75.5 5 86.5 L 15 98.5 L 18 106.5 L 21.5 110 L 29.5 113 L 41.5 123 Q 54.6 120.9 60 126.5 L 60 128 L 55 128 Q 56.1 125.3 53.5 126 L 52.5 125 L 38.5 125 L 32 120 L 29.5 116 L 19.5 112 L 15 107.5 L 14 101 Q 11 102.3 12 98.5 L 8 96 L 3 88.5 L 3 76.5 L 2 74 L 0 74 L 0 69 Z " /><path fill="rgb(244,215,76)" stroke="rgb(244,215,76)" stroke-width="1" opacity="0.0392156862745098" d="M 38 0 L 53.5 0 L 54 2 L 51.5 3 L 38.5 3 L 36 4 L 33.5 8 Q 31.3 7.3 32 9.5 L 27 12 Q 28.1 14.7 25.5 14 Q 18.1 15.1 15 20.5 L 14 25.5 L 9.5 32 Q 7.3 31.3 8 33.5 L 4 36 L 3 38.5 L 3 51.5 L 2 54 L 0 53.5 L 0 38 Q 3.3 39.3 2 34.5 L 10 26.5 L 11 19 L 14 19 L 14 14 L 18.5 14 Q 19.5 9 26.5 10 L 34.5 2 L 38 2 L 38 0 Z " /><path fill="rgb(244,215,76)" stroke="rgb(244,215,76)" stroke-width="1" opacity="0.0392156862745098" d="M 74 0 L 89.5 0 Q 88.5 3 93.5 2 L 101.5 10 Q 107.3 9.2 109 12.5 L 109 14 L 114 14 L 114 18.5 Q 119 19.5 118 26.5 L 126 34.5 L 126 38 L 128 38.5 L 128 55 Q 125 56.3 126 52.5 L 125 51.5 L 125 38.5 L 114 26.5 Q 113.3 18.3 107.5 15 L 104.5 15 L 97.5 11 L 88.5 3 L 76.5 3 L 74 2 L 74 0 Z " /><path fill="rgb(244,215,76)" stroke="rgb(244,215,76)" stroke-width="1" opacity="0.0392156862745098" d="M 126 73 L 128 73.5 L 128 90 Q 124.7 88.7 126 93.5 L 118 100.5 L 118 105.5 Q 112.8 107.1 114 114 L 109.5 114 L 105.5 118 Q 99.3 116.8 98 120.5 L 93.5 126 Q 88.5 125 89.5 128 L 73 128 Q 71.8 125 75.5 126 L 76.5 125 L 88.5 125 L 101.5 114 Q 109 113.5 112 108.5 Q 115.9 95.9 125 88.5 L 125 75.5 L 126 73 Z " /><path fill="rgb(244,215,76)" stroke="rgb(244,215,76)" stroke-width="1" opacity="0.0392156862745098" d="M 0 74 Q 2.7 72.9 2 75.5 L 3 76.5 L 3 88.5 L 8 96 L 12 98.5 L 12 101 Q 14.7 99.9 14 102.5 L 15 107.5 L 19.5 112 Q 27.8 113.2 32 118.5 Q 31.3 120.8 33.5 120 L 38.5 125 L 52.5 125 L 55 126 L 54.5 128 L 38 128 Q 39.3 124.7 34.5 126 L 26.5 118 Q 20.7 118.8 19 115.5 L 19 114 L 14 114 L 14 109.5 Q 9 108.5 10 101.5 L 2 93.5 L 2 90 L 0 89.5 L 0 74 Z " /><path fill="rgb(240,208,77)" stroke="rgb(240,208,77)" stroke-width="1" opacity="1" d="M 61.5 4 L 63.5 4 L 72 7 L 72.5 10 L 73 8 L 75.5 9 L 77 8.5 L 77.5 10 Q 79.3 7.2 85.5 9 L 87.5 9 Q 90.1 8.2 89 11.5 L 86.5 14 Q 81.4 13.4 80 16.5 Q 80.9 19.5 76.5 18 L 74 19 Q 75.8 23.5 70.5 22 L 67 24.5 L 65.5 27 L 63 27 Q 64.5 30.8 61.5 30 L 59 31 L 58 35 Q 53.9 33.3 55 37.5 L 51 39 L 46 47.5 L 46 51 L 42 52.5 Q 43.3 58.6 40.5 58 L 38 60.5 L 38 68 L 35 69.5 L 34 84 Q 29.9 82.3 31 86.5 L 30 93 L 27 94.5 L 26 105 L 21.5 106 L 21.5 104 L 20 103.5 L 20.5 102 Q 16.8 103.3 18 99.5 L 17 97.5 Q 19.2 96.3 16.5 95 Q 14.3 95.8 15 93.5 L 11 91 L 11 89 Q 8.3 90.1 9 87.5 L 9 85.5 Q 10.9 75.6 6 72.5 L 8 71.5 L 5 69.5 L 6 67.5 L 4 66.5 L 4 64.5 L 6 60.5 L 5.5 59 Q 8.5 59.7 7 56 L 9.5 56 L 9.5 55 Q 7.3 55.8 8 53.5 L 8.5 51 L 10 50.5 Q 7.2 48.8 9 42.5 L 9 40.5 L 11.5 37 L 13 37.5 L 15 34.5 L 14.5 33 L 17.5 34 L 17 32.5 Q 16.3 28.8 18.5 28 Q 20.8 28.8 20 26.5 L 22 22.5 L 22.5 21 L 24 21.5 L 24.5 20 L 26 20.5 Q 24.8 16.8 28.5 18 L 30.5 17 Q 31.7 19.2 33 16.5 Q 32.3 14.3 34.5 15 L 38 12.5 Q 35.3 10.8 39.5 9 L 41.5 10 L 42.5 9 L 51.5 9 L 55.5 6 L 56.5 8 L 58.5 5 L 60.5 6 L 61.5 4 Z " /><path fill="rgb(240,208,77)" stroke="rgb(240,208,77)" stroke-width="1" opacity="1" d="M 110.5 29 L 115.5 37 Q 118.1 36.3 117 39 L 119 39 L 119 41.5 Q 116.5 43 118 48.5 L 118.5 51 L 120 51.5 Q 117.5 53 121 54.5 L 120 56.5 L 123 58.5 L 122 60.5 L 124 61.5 L 123 66.5 Q 123.8 68.8 121.5 68 L 121.5 69 L 123 69.5 L 121 70.5 Q 123.5 72 120 73.5 L 118 78.5 L 118 85.5 L 119 87.5 L 116 89.5 L 115.5 88 Q 115.9 94.4 111.5 96 L 110 96.5 L 111 98.5 L 107 104.5 L 105.5 107 L 100.5 110 L 98.5 109 L 98.5 111 L 97.5 110 L 92.5 115 L 88 115.5 L 90 116.5 L 86.5 119 Q 84.7 116.2 78.5 118 L 72.5 121 L 71 120.5 L 69.5 123 L 67.5 122 L 67 124 L 60 123 L 59.5 121 L 58.5 123 L 57.5 121 Q 56 123.5 54.5 120 L 49.5 118 L 42.5 118 L 39 119 L 39 117 Q 36.3 118.1 37 115.5 L 34.5 112 Q 37.1 112.7 36 110 L 33 109.5 L 36.5 109 Q 38 111.5 43.5 110 Q 47.5 108.3 46 102 L 60.5 102 L 64 99.5 Q 63.4 96.8 69.5 98 L 74 95.5 Q 73.1 92.5 77.5 94 L 81 93 Q 79.3 88.5 84.5 90 L 86 86 L 90 86 L 90 84.5 L 94 82 Q 91.9 76.8 96.5 78 Q 99 76.8 98 73 Q 102.1 74.7 101 70.5 L 103.5 65 Q 105.8 65.8 105 63.5 L 106 61.5 L 105 59 L 103 58.5 L 106 56.5 L 107.5 53 Q 109.8 53.8 109 51.5 L 110 50.5 L 110.5 29 Z M 118 54 Q 117 57 120 56 Q 121 53 118 54 Z M 72 118 Q 71 121 74 120 Q 75 117 72 118 Z " /><path fill="rgb(226,215,182)" stroke="rgb(226,215,182)" stroke-width="1" opacity="1" d="M 93.5 19 Q 98.1 21.9 99 28.5 L 100 43.5 L 97 51 L 85.5 56 L 73.5 57 L 72 58.5 L 80.5 63 L 89.5 63 L 92 65.5 Q 87.8 76.8 78.5 83 L 62.5 92 L 49.5 94 L 47 93 L 46 89.5 L 47 83 Q 44 81.8 45 85.5 L 44 87.5 L 45 90 L 40 92.5 L 39 99.5 L 36 102.5 Q 37 107 34.5 108 L 32 106.5 L 32 102.5 L 36 95.5 L 36 91.5 L 40 85.5 L 44 71.5 L 44 67.5 Q 47.7 64.7 48 58.5 L 61.5 40 L 64 38.5 L 65.5 36 L 68 34.5 Q 67.3 32.3 69.5 33 L 81.5 24 L 93.5 19 Z M 92 21 L 67 37 L 53 54 Q 53 59 49 61 L 48 67 L 45 71 L 46 79 Q 55 60 69 47 Q 68 44 71 45 L 75 40 Q 77 41 76 39 L 84 32 L 87 31 L 88 35 L 82 40 L 80 43 L 78 44 L 76 47 L 74 48 L 69 54 L 71 56 L 84 55 L 89 52 L 94 51 L 98 46 Q 100 31 95 24 Q 96 19 92 21 Z M 66 60 L 65 61 Q 62 60 63 63 L 61 63 L 48 89 L 50 92 L 61 91 Q 63 87 70 87 L 81 79 L 91 67 Q 86 63 77 64 L 69 60 L 66 60 Z M 49 77 L 49 80 L 51 79 Q 52 76 49 77 Z " /><path fill="rgb(254,253,252)" stroke="rgb(254,253,252)" stroke-width="1" opacity="1" d="M 93.5 23 L 95 25.5 L 96 42.5 L 92.5 50 L 85.5 51 L 81.5 54 L 72.5 54 L 74 51.5 Q 73.3 49.3 75.5 50 L 79.5 45 L 82 43.5 Q 81.3 41.3 83.5 42 L 90 35.5 L 90 30.5 L 87.5 27 L 86 26.5 L 93.5 23 Z " /><path fill="rgb(254,253,252)" stroke="rgb(254,253,252)" stroke-width="1" opacity="1" d="M 74.5 33 Q 77.5 34.5 74.5 36 Q 72.3 36.8 73 34.5 L 74.5 33 Z " /><path fill="rgb(254,253,252)" stroke="rgb(254,253,252)" stroke-width="1" opacity="1" d="M 69 37 L 73 37.5 L 57.5 55 L 56 54.5 L 58.5 49 L 61 49 Q 58.9 43.8 63.5 45 L 65 41 L 69 39.5 L 69 37 Z " /><path fill="rgb(254,253,252)" stroke="rgb(254,253,252)" stroke-width="1" opacity="1" d="M 54.5 55 L 55 59 L 53 58.5 L 54.5 55 Z " /><path fill="rgb(254,253,252)" stroke="rgb(254,253,252)" stroke-width="1" opacity="1" d="M 65 62 L 67.5 62 L 71.5 65 L 80.5 65 L 88 66.5 L 83 75 L 75 80.5 L 73.5 83 Q 69 82.5 68.5 86 L 62.5 87 L 58.5 90 L 50 91 L 50 87.5 L 53 84.5 L 53 81.5 L 57 76.5 L 57 73.5 L 61 69.5 L 62 65 L 65 63.5 L 65 62 Z " /><path fill="rgb(0,0,0)" stroke="rgb(0,0,0)" stroke-width="1" opacity="0" d="M 0 0 L 37.5 0 L 38 2 Q 33 1.2 31 4.5 L 26.5 10 Q 19.5 9 18.5 14 L 14 14 Q 15 17.8 12.5 19 Q 10.3 18.3 11 20.5 Q 8.8 21.7 10 26.5 L 5.5 31 L 3 32.5 L 2 38 L 0 37.5 L 0 0 Z " /><path fill="rgb(0,0,0)" stroke="rgb(0,0,0)" stroke-width="1" opacity="0" d="M 90 0 L 128 0 L 128 38 Q 124.7 39.3 126 34.5 L 123.5 31 L 118 26.5 Q 119 19.5 114 18.5 L 114 14 L 109 14 Q 110.7 9.9 106.5 11 L 101.5 10 L 97 5.5 L 95.5 3 L 90 2 L 90 0 Z " /><path fill="rgb(0,0,0)" stroke="rgb(0,0,0)" stroke-width="1" opacity="0" d="M 0 90 Q 3.3 88.7 2 93.5 L 4.5 97 L 10 101.5 Q 9 108.5 14 109.5 L 14 114 L 19 114 Q 17.3 118.1 21.5 117 L 26.5 118 L 31 122.5 L 32.5 125 L 38 126 L 37.5 128 L 0 128 L 0 90 Z " /><path fill="rgb(0,0,0)" stroke="rgb(0,0,0)" stroke-width="1" opacity="0" d="M 126 90 L 128 90.5 L 128 128 L 90.5 128 L 90 126 Q 96.4 127 98 121.5 L 100.5 118 L 105.5 118 Q 107.1 112.8 114 114 L 114 109 L 115.5 109 Q 119 107 118 100.5 L 120.5 98 L 126 93.5 L 126 90 Z " /><path fill="rgb(232,199,73)" stroke="rgb(232,199,73)" stroke-width="1" opacity="0.8196078431372549" d="M 94.5 11 L 105 17.5 L 104.5 21 L 97.5 15 L 95.5 15 L 92 13.5 L 94.5 11 Z " /></svg>